# xmcd
#
# Track frame offsets:
#	150
#	12297
#	20355
#	25442
#	35562
#	45107
#	55417
#	70075
#	76370
#	88130
#	99617
#	115627
#	123917
#	133942
#	144817
#	153027
#	162745
#	177460
#	206095
#	226875
#	242632
#
# Disc length: 3371 seconds
#
# Revision: 3
# Processed by: cddbd v1.5PL3 Copyright (c) Steve Scherf et al.
# Submitted via: dBpowerAMP V4.0
#
DISCID=130d2915
DTITLE=Frank Sinatra - Frank Sinatra and Friends - Só Sucessos
DYEAR=1900
DGENRE=Easy Listening
TTITLE0=Tea for Two - Dinah Shore
TTITLE1=Together - Eileen Barton and The Vimms
TTITLE2=Don't Bring Lulu - Jack Carson
TTITLE3=Parody Melody - with Bing Crosby
TTITLE4=There's No Business Like Showbusiness
TTITLE5=Nocan Do - Lena Romay
TTITLE6=Some Enchanted Evening - Janet Blair
TTITLE7=Figaro - Charles Ramirez
TTITLE8=Make Believe - Jane Powell
TTITLE9=Camptown Races - Lawrence Tibbet
TTITLE10=Lover Come Back to Me - Dorothy Kirsten
TTITLE11=Exactly Like You - Nat KIng Cole
TTITLE12=Come Out Come Out Wherever You Are - Eileen Barton
TTITLE13=Personality - Van Johnson
TTITLE14=Somebody Loves Me - Pied Pipers
TTITLE15=This Can't Be Love - Margaret Whiting
TTITLE16=Yes Indeed - Sy Oliver
TTITLE17=Among My Souvenirs/September Song/As Time Goes By - Bing Crosby
TTITLE18=Till We Meet Again/Meet Me Tonight in Dreamland/There's a Long Long Trail - Bing Crosby
TTITLE19=Birth of The Blues - Louis Armstrong
TTITLE20=You´d Be So Nice To Come Home To
EXTD=
EXTT0=
EXTT1=
EXTT2=
EXTT3=
EXTT4=
EXTT5=
EXTT6=
EXTT7=
EXTT8=
EXTT9=
EXTT10=
EXTT11=
EXTT12=
EXTT13=
EXTT14=
EXTT15=
EXTT16=
EXTT17=
EXTT18=
EXTT19=
EXTT20=
PLAYORDER=
